<mxfile host="app.diagrams.net" agent="Mozilla/5.0 (Windows NT 10.0; Win64; x64) AppleWebKit/537.36 (KHTML, like Gecko) Chrome/129.0.0.0 Safari/537.36 Edg/129.0.0.0" version="24.7.16">
  <diagram name="Page-1" id="AQAEjOhriINU9MKhfSwM">
    <mxGraphModel dx="1683" dy="969" grid="1" gridSize="10" guides="1" tooltips="1" connect="1" arrows="1" fold="1" page="0" pageScale="1" pageWidth="850" pageHeight="1100" math="0" shadow="0">
      <root>
        <mxCell id="0" />
        <mxCell id="1" parent="0" />
        <mxCell id="0q9hEgec8KiSJd1FautN-2" value="Game" style="rounded=0;whiteSpace=wrap;html=1;" parent="1" vertex="1">
          <mxGeometry y="170" width="120" height="60" as="geometry" />
        </mxCell>
        <mxCell id="0q9hEgec8KiSJd1FautN-4" value="LeaderBoard" style="rounded=0;whiteSpace=wrap;html=1;" parent="1" vertex="1">
          <mxGeometry x="280" y="10" width="120" height="60" as="geometry" />
        </mxCell>
        <mxCell id="McgqsXJh132gIoxvOHwo-1" value="Question" style="rounded=0;whiteSpace=wrap;html=1;" parent="1" vertex="1">
          <mxGeometry y="330" width="120" height="60" as="geometry" />
        </mxCell>
        <mxCell id="McgqsXJh132gIoxvOHwo-2" value="&lt;u&gt;id&lt;/u&gt;" style="ellipse;whiteSpace=wrap;html=1;" parent="1" vertex="1">
          <mxGeometry x="-80" y="280" width="60" height="40" as="geometry" />
        </mxCell>
        <mxCell id="McgqsXJh132gIoxvOHwo-4" value="images" style="ellipse;whiteSpace=wrap;html=1;" parent="1" vertex="1">
          <mxGeometry x="-80" y="340" width="60" height="40" as="geometry" />
        </mxCell>
        <mxCell id="McgqsXJh132gIoxvOHwo-5" value="text" style="ellipse;whiteSpace=wrap;html=1;" parent="1" vertex="1">
          <mxGeometry x="-70" y="390" width="60" height="40" as="geometry" />
        </mxCell>
        <mxCell id="McgqsXJh132gIoxvOHwo-6" value="answer1" style="ellipse;whiteSpace=wrap;html=1;" parent="1" vertex="1">
          <mxGeometry x="130" y="290" width="60" height="40" as="geometry" />
        </mxCell>
        <mxCell id="McgqsXJh132gIoxvOHwo-7" value="answer4" style="ellipse;whiteSpace=wrap;html=1;" parent="1" vertex="1">
          <mxGeometry x="70" y="420" width="60" height="40" as="geometry" />
        </mxCell>
        <mxCell id="McgqsXJh132gIoxvOHwo-8" value="answer3" style="ellipse;whiteSpace=wrap;html=1;" parent="1" vertex="1">
          <mxGeometry x="130" y="390" width="60" height="40" as="geometry" />
        </mxCell>
        <mxCell id="McgqsXJh132gIoxvOHwo-9" value="answer2" style="ellipse;whiteSpace=wrap;html=1;" parent="1" vertex="1">
          <mxGeometry x="140" y="340" width="60" height="40" as="geometry" />
        </mxCell>
        <mxCell id="McgqsXJh132gIoxvOHwo-10" value="correct" style="ellipse;whiteSpace=wrap;html=1;" parent="1" vertex="1">
          <mxGeometry x="-10" y="420" width="60" height="40" as="geometry" />
        </mxCell>
        <mxCell id="McgqsXJh132gIoxvOHwo-11" value="" style="endArrow=none;html=1;rounded=0;" parent="1" source="McgqsXJh132gIoxvOHwo-1" target="McgqsXJh132gIoxvOHwo-7" edge="1">
          <mxGeometry width="50" height="50" relative="1" as="geometry">
            <mxPoint x="-185" y="420" as="sourcePoint" />
            <mxPoint x="-135" y="370" as="targetPoint" />
          </mxGeometry>
        </mxCell>
        <mxCell id="McgqsXJh132gIoxvOHwo-13" value="" style="endArrow=none;html=1;rounded=0;" parent="1" source="McgqsXJh132gIoxvOHwo-36" target="McgqsXJh132gIoxvOHwo-28" edge="1">
          <mxGeometry width="50" height="50" relative="1" as="geometry">
            <mxPoint x="-300" y="250" as="sourcePoint" />
            <mxPoint x="380" y="290" as="targetPoint" />
          </mxGeometry>
        </mxCell>
        <mxCell id="IQ0TIih383A0mq1WMwvR-6" value="n" style="edgeLabel;html=1;align=center;verticalAlign=middle;resizable=0;points=[];" vertex="1" connectable="0" parent="McgqsXJh132gIoxvOHwo-13">
          <mxGeometry x="0.65" y="-2" relative="1" as="geometry">
            <mxPoint y="-8" as="offset" />
          </mxGeometry>
        </mxCell>
        <mxCell id="McgqsXJh132gIoxvOHwo-14" value="" style="endArrow=none;html=1;rounded=0;" parent="1" source="McgqsXJh132gIoxvOHwo-34" target="McgqsXJh132gIoxvOHwo-28" edge="1">
          <mxGeometry width="50" height="50" relative="1" as="geometry">
            <mxPoint x="-50" y="40" as="sourcePoint" />
            <mxPoint x="380" y="290" as="targetPoint" />
          </mxGeometry>
        </mxCell>
        <mxCell id="IQ0TIih383A0mq1WMwvR-2" value="1" style="edgeLabel;html=1;align=center;verticalAlign=middle;resizable=0;points=[];" vertex="1" connectable="0" parent="McgqsXJh132gIoxvOHwo-14">
          <mxGeometry x="0.0815" y="1" relative="1" as="geometry">
            <mxPoint x="9" y="-9" as="offset" />
          </mxGeometry>
        </mxCell>
        <mxCell id="McgqsXJh132gIoxvOHwo-15" value="" style="endArrow=none;html=1;rounded=0;" parent="1" source="McgqsXJh132gIoxvOHwo-27" target="McgqsXJh132gIoxvOHwo-34" edge="1">
          <mxGeometry width="50" height="50" relative="1" as="geometry">
            <mxPoint x="410" y="340" as="sourcePoint" />
            <mxPoint x="460" y="290" as="targetPoint" />
          </mxGeometry>
        </mxCell>
        <mxCell id="IQ0TIih383A0mq1WMwvR-1" value="1" style="edgeLabel;html=1;align=center;verticalAlign=middle;resizable=0;points=[];" vertex="1" connectable="0" parent="McgqsXJh132gIoxvOHwo-15">
          <mxGeometry x="-0.7185" y="1" relative="1" as="geometry">
            <mxPoint x="7" y="-9" as="offset" />
          </mxGeometry>
        </mxCell>
        <mxCell id="McgqsXJh132gIoxvOHwo-16" value="" style="endArrow=none;html=1;rounded=0;" parent="1" source="McgqsXJh132gIoxvOHwo-28" target="McgqsXJh132gIoxvOHwo-32" edge="1">
          <mxGeometry width="50" height="50" relative="1" as="geometry">
            <mxPoint x="330" y="340" as="sourcePoint" />
            <mxPoint x="380" y="290" as="targetPoint" />
          </mxGeometry>
        </mxCell>
        <mxCell id="McgqsXJh132gIoxvOHwo-17" value="" style="endArrow=none;html=1;rounded=0;" parent="1" source="McgqsXJh132gIoxvOHwo-31" target="McgqsXJh132gIoxvOHwo-28" edge="1">
          <mxGeometry width="50" height="50" relative="1" as="geometry">
            <mxPoint x="330" y="340" as="sourcePoint" />
            <mxPoint x="380" y="290" as="targetPoint" />
          </mxGeometry>
        </mxCell>
        <mxCell id="McgqsXJh132gIoxvOHwo-18" value="" style="endArrow=none;html=1;rounded=0;" parent="1" source="McgqsXJh132gIoxvOHwo-27" target="McgqsXJh132gIoxvOHwo-30" edge="1">
          <mxGeometry width="50" height="50" relative="1" as="geometry">
            <mxPoint x="-60" y="350" as="sourcePoint" />
            <mxPoint x="-10" y="300" as="targetPoint" />
          </mxGeometry>
        </mxCell>
        <mxCell id="McgqsXJh132gIoxvOHwo-20" value="" style="endArrow=none;html=1;rounded=0;" parent="1" source="McgqsXJh132gIoxvOHwo-10" target="McgqsXJh132gIoxvOHwo-1" edge="1">
          <mxGeometry width="50" height="50" relative="1" as="geometry">
            <mxPoint x="-185" y="420" as="sourcePoint" />
            <mxPoint x="-135" y="370" as="targetPoint" />
          </mxGeometry>
        </mxCell>
        <mxCell id="McgqsXJh132gIoxvOHwo-21" value="" style="endArrow=none;html=1;rounded=0;" parent="1" source="McgqsXJh132gIoxvOHwo-2" target="McgqsXJh132gIoxvOHwo-1" edge="1">
          <mxGeometry width="50" height="50" relative="1" as="geometry">
            <mxPoint x="-185" y="420" as="sourcePoint" />
            <mxPoint x="-135" y="370" as="targetPoint" />
          </mxGeometry>
        </mxCell>
        <mxCell id="McgqsXJh132gIoxvOHwo-22" value="" style="endArrow=none;html=1;rounded=0;" parent="1" source="McgqsXJh132gIoxvOHwo-4" target="McgqsXJh132gIoxvOHwo-1" edge="1">
          <mxGeometry width="50" height="50" relative="1" as="geometry">
            <mxPoint x="-185" y="420" as="sourcePoint" />
            <mxPoint x="-135" y="370" as="targetPoint" />
          </mxGeometry>
        </mxCell>
        <mxCell id="McgqsXJh132gIoxvOHwo-23" value="" style="endArrow=none;html=1;rounded=0;" parent="1" source="McgqsXJh132gIoxvOHwo-5" target="McgqsXJh132gIoxvOHwo-1" edge="1">
          <mxGeometry width="50" height="50" relative="1" as="geometry">
            <mxPoint x="-185" y="420" as="sourcePoint" />
            <mxPoint x="-135" y="370" as="targetPoint" />
          </mxGeometry>
        </mxCell>
        <mxCell id="McgqsXJh132gIoxvOHwo-24" value="" style="endArrow=none;html=1;rounded=0;" parent="1" source="McgqsXJh132gIoxvOHwo-6" target="McgqsXJh132gIoxvOHwo-1" edge="1">
          <mxGeometry width="50" height="50" relative="1" as="geometry">
            <mxPoint x="-185" y="420" as="sourcePoint" />
            <mxPoint x="-135" y="370" as="targetPoint" />
          </mxGeometry>
        </mxCell>
        <mxCell id="McgqsXJh132gIoxvOHwo-25" value="" style="endArrow=none;html=1;rounded=0;" parent="1" source="McgqsXJh132gIoxvOHwo-9" target="McgqsXJh132gIoxvOHwo-1" edge="1">
          <mxGeometry width="50" height="50" relative="1" as="geometry">
            <mxPoint x="-185" y="420" as="sourcePoint" />
            <mxPoint x="-135" y="370" as="targetPoint" />
          </mxGeometry>
        </mxCell>
        <mxCell id="McgqsXJh132gIoxvOHwo-26" value="" style="endArrow=none;html=1;rounded=0;" parent="1" source="McgqsXJh132gIoxvOHwo-8" target="McgqsXJh132gIoxvOHwo-1" edge="1">
          <mxGeometry width="50" height="50" relative="1" as="geometry">
            <mxPoint x="-135" y="460" as="sourcePoint" />
            <mxPoint x="-85" y="410" as="targetPoint" />
          </mxGeometry>
        </mxCell>
        <mxCell id="McgqsXJh132gIoxvOHwo-27" value="User" style="rounded=0;whiteSpace=wrap;html=1;" parent="1" vertex="1">
          <mxGeometry x="-280" y="10" width="120" height="60" as="geometry" />
        </mxCell>
        <mxCell id="McgqsXJh132gIoxvOHwo-28" value="Account" style="rounded=0;whiteSpace=wrap;html=1;" parent="1" vertex="1">
          <mxGeometry y="10" width="120" height="60" as="geometry" />
        </mxCell>
        <mxCell id="McgqsXJh132gIoxvOHwo-30" value="name" style="ellipse;whiteSpace=wrap;html=1;" parent="1" vertex="1">
          <mxGeometry x="-220" y="-50" width="60" height="40" as="geometry" />
        </mxCell>
        <mxCell id="McgqsXJh132gIoxvOHwo-31" value="&lt;u&gt;id&lt;/u&gt;" style="ellipse;whiteSpace=wrap;html=1;" parent="1" vertex="1">
          <mxGeometry x="-80" y="-50" width="60" height="40" as="geometry" />
        </mxCell>
        <mxCell id="McgqsXJh132gIoxvOHwo-32" value="name" style="ellipse;whiteSpace=wrap;html=1;" parent="1" vertex="1">
          <mxGeometry x="-50" y="-100" width="60" height="40" as="geometry" />
        </mxCell>
        <mxCell id="McgqsXJh132gIoxvOHwo-34" value="has" style="rhombus;whiteSpace=wrap;html=1;" parent="1" vertex="1">
          <mxGeometry x="-120" y="12.5" width="80" height="55" as="geometry" />
        </mxCell>
        <mxCell id="McgqsXJh132gIoxvOHwo-36" value="in" style="rhombus;whiteSpace=wrap;html=1;" parent="1" vertex="1">
          <mxGeometry x="160" y="12.5" width="80" height="55" as="geometry" />
        </mxCell>
        <mxCell id="McgqsXJh132gIoxvOHwo-39" value="" style="endArrow=none;html=1;rounded=0;" parent="1" edge="1" target="0q9hEgec8KiSJd1FautN-4" source="IQ0TIih383A0mq1WMwvR-16">
          <mxGeometry width="50" height="50" relative="1" as="geometry">
            <mxPoint x="350" y="-60" as="sourcePoint" />
            <mxPoint x="565" y="50" as="targetPoint" />
          </mxGeometry>
        </mxCell>
        <mxCell id="McgqsXJh132gIoxvOHwo-40" value="" style="endArrow=none;html=1;rounded=0;" parent="1" edge="1" target="0q9hEgec8KiSJd1FautN-2" source="IQ0TIih383A0mq1WMwvR-15">
          <mxGeometry width="50" height="50" relative="1" as="geometry">
            <mxPoint x="515" y="100" as="sourcePoint" />
            <mxPoint x="565" y="50" as="targetPoint" />
          </mxGeometry>
        </mxCell>
        <mxCell id="McgqsXJh132gIoxvOHwo-41" value="" style="endArrow=none;html=1;rounded=0;" parent="1" edge="1" target="IQ0TIih383A0mq1WMwvR-13" source="0q9hEgec8KiSJd1FautN-2">
          <mxGeometry width="50" height="50" relative="1" as="geometry">
            <mxPoint x="250" y="250" as="sourcePoint" />
            <mxPoint x="300" y="200" as="targetPoint" />
          </mxGeometry>
        </mxCell>
        <mxCell id="McgqsXJh132gIoxvOHwo-42" value="" style="endArrow=none;html=1;rounded=0;" parent="1" edge="1" target="McgqsXJh132gIoxvOHwo-1" source="IQ0TIih383A0mq1WMwvR-9">
          <mxGeometry width="50" height="50" relative="1" as="geometry">
            <mxPoint x="515" y="100" as="sourcePoint" />
            <mxPoint x="565" y="50" as="targetPoint" />
          </mxGeometry>
        </mxCell>
        <mxCell id="IQ0TIih383A0mq1WMwvR-11" value="n" style="edgeLabel;html=1;align=center;verticalAlign=middle;resizable=0;points=[];" vertex="1" connectable="0" parent="McgqsXJh132gIoxvOHwo-42">
          <mxGeometry x="0.2556" y="-1" relative="1" as="geometry">
            <mxPoint x="-9" y="-2" as="offset" />
          </mxGeometry>
        </mxCell>
        <mxCell id="McgqsXJh132gIoxvOHwo-43" value="" style="endArrow=none;html=1;rounded=0;" parent="1" edge="1" target="0q9hEgec8KiSJd1FautN-2" source="IQ0TIih383A0mq1WMwvR-9">
          <mxGeometry width="50" height="50" relative="1" as="geometry">
            <mxPoint x="510" y="60" as="sourcePoint" />
            <mxPoint x="560" y="10" as="targetPoint" />
          </mxGeometry>
        </mxCell>
        <mxCell id="IQ0TIih383A0mq1WMwvR-10" value="1" style="edgeLabel;html=1;align=center;verticalAlign=middle;resizable=0;points=[];" vertex="1" connectable="0" parent="McgqsXJh132gIoxvOHwo-43">
          <mxGeometry x="0.3085" y="1" relative="1" as="geometry">
            <mxPoint x="-9" as="offset" />
          </mxGeometry>
        </mxCell>
        <mxCell id="McgqsXJh132gIoxvOHwo-44" value="" style="endArrow=none;html=1;rounded=0;" parent="1" edge="1" target="0q9hEgec8KiSJd1FautN-2" source="IQ0TIih383A0mq1WMwvR-3">
          <mxGeometry width="50" height="50" relative="1" as="geometry">
            <mxPoint x="210" y="240" as="sourcePoint" />
            <mxPoint x="260" y="190" as="targetPoint" />
          </mxGeometry>
        </mxCell>
        <mxCell id="IQ0TIih383A0mq1WMwvR-8" value="n" style="edgeLabel;html=1;align=center;verticalAlign=middle;resizable=0;points=[];" vertex="1" connectable="0" parent="McgqsXJh132gIoxvOHwo-44">
          <mxGeometry x="0.2" relative="1" as="geometry">
            <mxPoint x="-10" y="-2" as="offset" />
          </mxGeometry>
        </mxCell>
        <mxCell id="McgqsXJh132gIoxvOHwo-45" value="" style="endArrow=none;html=1;rounded=0;" parent="1" edge="1" target="IQ0TIih383A0mq1WMwvR-3" source="McgqsXJh132gIoxvOHwo-28">
          <mxGeometry width="50" height="50" relative="1" as="geometry">
            <mxPoint x="250" y="280" as="sourcePoint" />
            <mxPoint x="300" y="230" as="targetPoint" />
          </mxGeometry>
        </mxCell>
        <mxCell id="IQ0TIih383A0mq1WMwvR-7" value="1" style="edgeLabel;html=1;align=center;verticalAlign=middle;resizable=0;points=[];" vertex="1" connectable="0" parent="McgqsXJh132gIoxvOHwo-45">
          <mxGeometry x="-0.35" relative="1" as="geometry">
            <mxPoint x="-10" as="offset" />
          </mxGeometry>
        </mxCell>
        <mxCell id="McgqsXJh132gIoxvOHwo-46" value="" style="endArrow=none;html=1;rounded=0;" parent="1" source="McgqsXJh132gIoxvOHwo-27" target="McgqsXJh132gIoxvOHwo-59" edge="1">
          <mxGeometry width="50" height="50" relative="1" as="geometry">
            <mxPoint x="200" y="260" as="sourcePoint" />
            <mxPoint x="250" y="210" as="targetPoint" />
          </mxGeometry>
        </mxCell>
        <mxCell id="McgqsXJh132gIoxvOHwo-47" value="" style="endArrow=none;html=1;rounded=0;" parent="1" source="McgqsXJh132gIoxvOHwo-58" target="McgqsXJh132gIoxvOHwo-28" edge="1">
          <mxGeometry width="50" height="50" relative="1" as="geometry">
            <mxPoint x="120" y="260" as="sourcePoint" />
            <mxPoint x="-292" y="390" as="targetPoint" />
          </mxGeometry>
        </mxCell>
        <mxCell id="McgqsXJh132gIoxvOHwo-48" value="" style="endArrow=none;html=1;rounded=0;" parent="1" source="McgqsXJh132gIoxvOHwo-28" target="McgqsXJh132gIoxvOHwo-57" edge="1">
          <mxGeometry width="50" height="50" relative="1" as="geometry">
            <mxPoint x="-325.7142857142858" y="390" as="sourcePoint" />
            <mxPoint x="170" y="210" as="targetPoint" />
          </mxGeometry>
        </mxCell>
        <mxCell id="McgqsXJh132gIoxvOHwo-49" value="" style="endArrow=none;html=1;rounded=0;" parent="1" source="McgqsXJh132gIoxvOHwo-56" target="McgqsXJh132gIoxvOHwo-28" edge="1">
          <mxGeometry width="50" height="50" relative="1" as="geometry">
            <mxPoint x="120" y="260" as="sourcePoint" />
            <mxPoint x="-360" y="370.9090909090909" as="targetPoint" />
          </mxGeometry>
        </mxCell>
        <mxCell id="McgqsXJh132gIoxvOHwo-51" value="" style="endArrow=none;html=1;rounded=0;" parent="1" source="McgqsXJh132gIoxvOHwo-28" target="McgqsXJh132gIoxvOHwo-54" edge="1">
          <mxGeometry width="50" height="50" relative="1" as="geometry">
            <mxPoint x="120" y="260" as="sourcePoint" />
            <mxPoint x="170" y="210" as="targetPoint" />
          </mxGeometry>
        </mxCell>
        <mxCell id="McgqsXJh132gIoxvOHwo-52" value="" style="endArrow=none;html=1;rounded=0;" parent="1" source="McgqsXJh132gIoxvOHwo-36" target="0q9hEgec8KiSJd1FautN-4" edge="1">
          <mxGeometry width="50" height="50" relative="1" as="geometry">
            <mxPoint x="160" y="260" as="sourcePoint" />
            <mxPoint x="210" y="210" as="targetPoint" />
          </mxGeometry>
        </mxCell>
        <mxCell id="IQ0TIih383A0mq1WMwvR-5" value="n" style="edgeLabel;html=1;align=center;verticalAlign=middle;resizable=0;points=[];" vertex="1" connectable="0" parent="McgqsXJh132gIoxvOHwo-52">
          <mxGeometry x="0.55" relative="1" as="geometry">
            <mxPoint y="-10" as="offset" />
          </mxGeometry>
        </mxCell>
        <mxCell id="McgqsXJh132gIoxvOHwo-54" value="password" style="ellipse;whiteSpace=wrap;html=1;" parent="1" vertex="1">
          <mxGeometry x="10" y="-130" width="60" height="40" as="geometry" />
        </mxCell>
        <mxCell id="McgqsXJh132gIoxvOHwo-56" value="easyP" style="ellipse;whiteSpace=wrap;html=1;" parent="1" vertex="1">
          <mxGeometry x="80" y="-130" width="60" height="40" as="geometry" />
        </mxCell>
        <mxCell id="McgqsXJh132gIoxvOHwo-57" value="normalP" style="ellipse;whiteSpace=wrap;html=1;" parent="1" vertex="1">
          <mxGeometry x="140" y="-100" width="60" height="40" as="geometry" />
        </mxCell>
        <mxCell id="McgqsXJh132gIoxvOHwo-58" value="hardP" style="ellipse;whiteSpace=wrap;html=1;" parent="1" vertex="1">
          <mxGeometry x="160" y="-50" width="60" height="40" as="geometry" />
        </mxCell>
        <mxCell id="McgqsXJh132gIoxvOHwo-59" value="&lt;u&gt;phone&lt;/u&gt;" style="ellipse;whiteSpace=wrap;html=1;" parent="1" vertex="1">
          <mxGeometry x="-330" y="-40" width="60" height="40" as="geometry" />
        </mxCell>
        <mxCell id="IQ0TIih383A0mq1WMwvR-3" value="play" style="rhombus;whiteSpace=wrap;html=1;" vertex="1" parent="1">
          <mxGeometry x="20" y="90" width="80" height="60" as="geometry" />
        </mxCell>
        <mxCell id="IQ0TIih383A0mq1WMwvR-9" value="has" style="rhombus;whiteSpace=wrap;html=1;" vertex="1" parent="1">
          <mxGeometry x="20" y="250" width="80" height="60" as="geometry" />
        </mxCell>
        <mxCell id="IQ0TIih383A0mq1WMwvR-13" value="score" style="ellipse;whiteSpace=wrap;html=1;" vertex="1" parent="1">
          <mxGeometry x="150" y="150" width="60" height="40" as="geometry" />
        </mxCell>
        <mxCell id="IQ0TIih383A0mq1WMwvR-15" value="time" style="ellipse;whiteSpace=wrap;html=1;" vertex="1" parent="1">
          <mxGeometry x="-90" y="160" width="60" height="40" as="geometry" />
        </mxCell>
        <mxCell id="IQ0TIih383A0mq1WMwvR-16" value="player" style="ellipse;whiteSpace=wrap;html=1;" vertex="1" parent="1">
          <mxGeometry x="310" y="-70" width="60" height="40" as="geometry" />
        </mxCell>
      </root>
    </mxGraphModel>
  </diagram>
</mxfile>
